<svg width="204" height="78" viewBox="0 0 204 78" fill="none" xmlns="http://www.w3.org/2000/svg">
<g clip-path="url(#clip0_109_5)">
<g clip-path="url(#clip1_109_5)">
<rect x="0.5" y="0.5" width="203" height="77" rx="7.5" fill="white" style="mix-blend-mode:screen"/>
<rect x="0.5" y="0.5" width="203" height="77" rx="7.5" stroke="black"/>
<path d="M91.9766 36.3164C90.3359 36.3164 88.9141 35.9648 87.7109 35.2617C86.5078 34.5508 85.5781 33.543 84.9219 32.2383C84.2734 30.9258 83.9492 29.3594 83.9492 27.5391V27.5273C83.9492 25.707 84.2734 24.1445 84.9219 22.8398C85.5781 21.5352 86.5078 20.5312 87.7109 19.8281C88.9141 19.125 90.3359 18.7734 91.9766 18.7734C93.3438 18.7734 94.5586 19.0391 95.6211 19.5703C96.6914 20.1016 97.5508 20.832 98.1992 21.7617C98.8555 22.6836 99.2383 23.7422 99.3477 24.9375L99.3594 25.0547H95.9141L95.8672 24.8789C95.7422 24.2539 95.5039 23.7109 95.1523 23.25C94.8086 22.7812 94.3672 22.418 93.8281 22.1602C93.2969 21.9023 92.6797 21.7734 91.9766 21.7734C91.0781 21.7734 90.2969 22.0078 89.6328 22.4766C88.9766 22.9375 88.4688 23.5977 88.1094 24.457C87.75 25.3086 87.5703 26.332 87.5703 27.5273V27.5391C87.5703 28.7266 87.75 29.7539 88.1094 30.6211C88.4688 31.4883 88.9805 32.1562 89.6445 32.625C90.3086 33.0859 91.0898 33.3164 91.9883 33.3164C92.668 33.3164 93.2734 33.1914 93.8047 32.9414C94.3359 32.6914 94.7812 32.332 95.1406 31.8633C95.5 31.3945 95.7539 30.832 95.9023 30.1758L95.9258 30.0703H99.3711L99.3594 30.1875C99.25 31.3828 98.8672 32.4414 98.2109 33.3633C97.5547 34.2852 96.6914 35.0078 95.6211 35.5312C94.5586 36.0547 93.3438 36.3164 91.9766 36.3164ZM100.051 36L105.957 19.0898H109.062V22.3945H107.984L103.777 36H100.051ZM103.227 31.8984L104.094 29.25H111.969L112.836 31.8984H103.227ZM112.297 36L108.09 22.3945V19.0898H110.117L116.012 36H112.297ZM123.816 36.3164C122.473 36.3164 121.301 36.1211 120.301 35.7305C119.309 35.332 118.527 34.7656 117.957 34.0312C117.395 33.2891 117.078 32.4023 117.008 31.3711L116.996 31.1836H120.348L120.371 31.3125C120.441 31.7422 120.633 32.1172 120.945 32.4375C121.266 32.75 121.676 32.9961 122.176 33.1758C122.684 33.3555 123.258 33.4453 123.898 33.4453C124.555 33.4453 125.121 33.3555 125.598 33.1758C126.074 32.9961 126.441 32.7422 126.699 32.4141C126.957 32.0859 127.086 31.707 127.086 31.2773V31.2656C127.086 30.7031 126.859 30.2578 126.406 29.9297C125.961 29.6016 125.215 29.332 124.168 29.1211L122.375 28.7578C120.695 28.4219 119.438 27.8516 118.602 27.0469C117.766 26.2422 117.348 25.2031 117.348 23.9297V23.918C117.355 22.8867 117.633 21.9883 118.18 21.2227C118.734 20.4492 119.496 19.8477 120.465 19.418C121.441 18.9883 122.551 18.7734 123.793 18.7734C125.105 18.7734 126.234 18.9805 127.18 19.3945C128.125 19.8008 128.863 20.375 129.395 21.1172C129.934 21.8594 130.23 22.7188 130.285 23.6953L130.297 23.9062H126.957L126.945 23.7656C126.883 23.3203 126.715 22.9414 126.441 22.6289C126.168 22.3164 125.805 22.0742 125.352 21.9023C124.906 21.7305 124.387 21.6445 123.793 21.6445C123.199 21.6445 122.684 21.7344 122.246 21.9141C121.816 22.0859 121.48 22.3242 121.238 22.6289C121.004 22.9336 120.887 23.2891 120.887 23.6953V23.707C120.887 24.2461 121.113 24.6797 121.566 25.0078C122.02 25.3359 122.734 25.6016 123.711 25.8047L125.492 26.168C126.68 26.4023 127.652 26.7266 128.41 27.1406C129.168 27.5547 129.727 28.0781 130.086 28.7109C130.445 29.3359 130.625 30.0898 130.625 30.9727V30.9844C130.625 32.0703 130.352 33.0156 129.805 33.8203C129.266 34.6172 128.488 35.2344 127.473 35.6719C126.457 36.1016 125.238 36.3164 123.816 36.3164ZM133.016 36V19.0898H136.555V25.957H144.172V19.0898H147.711V36H144.172V28.875H136.555V36H133.016ZM163.355 36.3164C161.684 36.3164 160.238 35.9609 159.02 35.25C157.801 34.5391 156.859 33.5273 156.195 32.2148C155.531 30.9023 155.199 29.3477 155.199 27.5508V27.5273C155.199 25.7305 155.531 24.1797 156.195 22.875C156.867 21.5625 157.812 20.5508 159.031 19.8398C160.25 19.1289 161.691 18.7734 163.355 18.7734C165.027 18.7734 166.473 19.1289 167.691 19.8398C168.91 20.5508 169.848 21.5625 170.504 22.875C171.168 24.1797 171.5 25.7305 171.5 27.5273V27.5508C171.5 29.3477 171.168 30.9023 170.504 32.2148C169.848 33.5273 168.91 34.5391 167.691 35.25C166.48 35.9609 165.035 36.3164 163.355 36.3164ZM163.355 33.3164C164.293 33.3164 165.098 33.082 165.77 32.6133C166.449 32.1367 166.973 31.4688 167.34 30.6094C167.707 29.7422 167.891 28.7227 167.891 27.5508V27.5273C167.891 26.3477 167.703 25.3281 167.328 24.4688C166.961 23.6094 166.438 22.9453 165.758 22.4766C165.078 22.0078 164.277 21.7734 163.355 21.7734C162.434 21.7734 161.633 22.0078 160.953 22.4766C160.273 22.9375 159.746 23.5977 159.371 24.457C158.996 25.3164 158.809 26.3398 158.809 27.5273V27.5508C158.809 28.7305 158.992 29.7539 159.359 30.6211C159.734 31.4805 160.262 32.1445 160.941 32.6133C161.621 33.082 162.426 33.3164 163.355 33.3164ZM173.984 36V19.0898H177.055L186.16 32.1094L183.277 30.0469H184.812V19.0898H188.316V36H185.27L176.152 22.9219L179.023 24.9727H177.488V36H173.984ZM84.5234 65V48.0898H91.0156C92.7031 48.0898 94.1445 48.418 95.3398 49.0742C96.543 49.7227 97.4609 50.668 98.0938 51.9102C98.7344 53.1523 99.0547 54.6641 99.0547 56.4453V56.4688C99.0547 58.2656 98.7344 59.8008 98.0938 61.0742C97.4609 62.3477 96.5469 63.3203 95.3516 63.9922C94.1562 64.6641 92.7109 65 91.0156 65H84.5234ZM88.0625 62.082H90.5703C91.625 62.082 92.5117 61.8711 93.2305 61.4492C93.957 61.0195 94.5078 60.3906 94.8828 59.5625C95.2578 58.7344 95.4453 57.7109 95.4453 56.4922V56.4688C95.4453 55.2969 95.2539 54.3047 94.8711 53.4922C94.4883 52.6797 93.9336 52.0625 93.207 51.6406C92.4805 51.2188 91.6016 51.0078 90.5703 51.0078H88.0625V62.082ZM101.539 65V48.0898H112.742V51.0078H105.078V55.0742H112.309V57.8281H105.078V62.082H112.742V65H101.539ZM115.508 65V48.0898H119.047V62.082H126.465V65H115.508ZM128.773 65V48.0898H132.312V65H128.773ZM139.906 65L134.246 48.0898H138.184L142.016 61.3203H142.121L145.953 48.0898H149.879L144.23 65H139.906ZM151.836 65V48.0898H163.039V51.0078H155.375V55.0742H162.605V57.8281H155.375V62.082H163.039V65H151.836ZM165.805 65V48.0898H172.789C174.062 48.0898 175.148 48.3086 176.047 48.7461C176.953 49.1758 177.645 49.793 178.121 50.5977C178.605 51.4023 178.848 52.3711 178.848 53.5039V53.5273C178.848 54.6289 178.574 55.6133 178.027 56.4805C177.48 57.3477 176.734 57.9648 175.789 58.332L179.352 65H175.332L172.191 58.8711C172.16 58.8711 172.129 58.8711 172.098 58.8711C172.074 58.8711 172.047 58.8711 172.016 58.8711H169.344V65H165.805ZM169.344 56.1992H172.414C173.289 56.1992 173.977 55.9648 174.477 55.4961C174.977 55.0195 175.227 54.3672 175.227 53.5391V53.5156C175.227 52.7031 174.969 52.0586 174.453 51.582C173.938 51.0977 173.242 50.8555 172.367 50.8555H169.344V56.1992ZM185.375 65V58.6836L179.48 48.0898H183.312L187.098 55.2969H187.203L190.977 48.0898H194.797L188.914 58.6836V65H185.375Z" fill="black"/>
<path d="M18 17L15.5 13.5L10 9V57L18 69L19 41.668L18 17Z" fill="#D48C64"/>
<path d="M70 17L62 9H10L18 17L44 18L70 17Z" fill="#C48563"/>
<path fill-rule="evenodd" clip-rule="evenodd" d="M18 17H70V69H18V17Z" fill="#E29A6C"/>
<path d="M65.305 17H70V69H18V65.122C48.473 63.977 65.27 48.979 65.305 17Z" fill="#D48C64"/>
<path d="M50 17L42 9H30L38 17L44 18L50 17Z" fill="#DBD8DB"/>
<path d="M38 17V25L40 23L42 25L44 23L46 25L48 23L50 25V17H38Z" fill="#ECEAEC"/>
<path d="M62 47H26C26 37.06 34.06 29 44 29C53.94 29 62 37.06 62 47Z" fill="#615260"/>
<path d="M42 29.043L42.067 29.051C43.874 29.263 45.644 29.739 47.307 30.479C49.6916 31.5426 51.8176 33.1098 53.539 35.073C55.0747 36.8235 56.2562 38.8554 57.018 41.056C57.671 42.946 57.994 44.935 58 46.933H62C62 36.993 53.94 28.933 44 28.933C43.324 28.933 42.657 28.971 42 29.043Z" fill="#4E3D4D"/>
<path d="M22 64C21.4 64 21 64.4 21 65C21 65.6 21.4 66 22 66H26C26.6 66 27 65.6 27 65C27 64.4 26.6 64 26 64H22ZM31 61C31 60.4 30.6 60 30 60H22C21.4 60 21 60.4 21 61C21 61.6 21.4 62 22 62H30C30.6 62 31 61.6 31 61ZM10 22C10.6 22 11 21.6 11 21V19.1C11 18.5 10.6 18.1 10 18.1C9.4 18.1 9 18.5 9 19.1V21C9 21.6 9.4 22 10 22Z" fill="black"/>
<path d="M70.7 16.3L62.7 8.3C62.5 8.1 62.3 8 62 8H10C9 8 9 8.9 9 9V15C9 15.6 9.4 16 10 16C10.6 16 11 15.6 11 15V11.4L17 17.4V65.7L11 56.7V25C11 24.4 10.6 24 10 24C9.4 24 9 24.4 9 25V57C9 57.2 9.1 57.4 9.2 57.6L17.2 69.6C17.5 70 17.9 70 18 70H62C62.6 70 63 69.6 63 69C63 68.4 62.6 68 62 68H19V18H37V25C37 25.4 37.2 25.8 37.6 25.9C38 26.1 38.4 26 38.7 25.7L40 24.4L41.3 25.7C41.7 26.1 42.3 26.1 42.7 25.7L44 24.4L45.3 25.7C45.7 26.1 46.3 26.1 46.7 25.7L48 24.4L49.3 25.7C49.5 25.9 50 26.1 50.4 25.9C50.8 25.7 51 25.4 51 25V18H69V68H66C65.4 68 65 68.4 65 69C65 69.6 65.4 70 66 70H70C70.6 70 71 69.6 71 69V17C71 16.9 71 16.5 70.7 16.3ZM18.4 16L12.4 10H29.6L35.6 16H18.4ZM49 22.6C49 22.6 48.1 21.6 47.3 22.3L46 23.6L44.7 22.3C44.3 21.9 43.7 21.9 43.3 22.3L42 23.6L40.7 22.3C39.8 21.6 39 22.6 39 22.6V17C39 16.7 38.8 16.4 38.7 16.3L32.4 10H41.6L49 17.4V22.6ZM50.4 16L44.4 10H61.6L67.6 16H50.4Z" fill="black"/>
<path d="M40 60C39.4 60 39 60.4 39 61V63C39 64.7 40.3 66 42 66C43.7 66 45 64.7 45 63V48H62C62.6 48 63 47.6 63 47C63 45.6 62.8 44.2 62.5 42.8C62.4 42.3 61.8 41.9 61.3 42C60.8 42.1 60.4 42.7 60.5 43.2C60.7 44.1 60.8 45 60.9 46H27C27.5 37.1 34.9 30 44 30C50.5 30 56.3 33.6 59.2 39.4C59.4 39.9 60 40.1 60.5 39.9C61 39.7 61.2 39.1 61 38.6C57.8 32 51.3 28 44 28C33.5 28 25 36.5 25 47C25 47.6 25.4 48 26 48H43V63C43 63.6 42.6 64 42 64C41.4 64 41 63.6 41 63V61C41 60.4 40.6 60 40 60Z" fill="black"/>
</g>
</g>
<defs>
<clipPath id="clip0_109_5">
<rect width="204" height="78" fill="white"/>
</clipPath>
<clipPath id="clip1_109_5">
<rect width="204" height="78" fill="white"/>
</clipPath>
</defs>
</svg>
